<svg width="425" height="425">
    <!-- The pole of the umbrella -->
    <path
        d="M 212.5 180 l 0 170"
        stroke="black" stroke-width="15" fill="none"
    />
    <!-- The crook handle of the umbrella -->
    <path
        id="handle"
        d="M 212.5 350 c 0 50, 50 50, 50 0"
        stroke="brown" stroke-width="20" fill="none"
    />
    <!-- The ribs of the umbrella -->
    <path
        d="
            M 0 212.5
            C 0 100, 0 0, 212.5 0
            C 25 0, 25 100, 25 212.5
            C 25 195, 0 195, 0 212.5
        "
        stroke-width="0" fill="#e5243b"
    />
    <path
        d="
            M 25 212.5
            C 25 100, 25 0, 212.5 0
            C 50 0, 50 100, 50 212.5
            C 50 195, 25 195, 25 212.5
        "
        stroke-width="0" fill="#e5b735"
    />
    <path
        d="
            M 50 212.5
            C 50 100, 50 0, 212.5 0
            C 75 0, 75 100, 75 212.5
            C 75 195, 50 195, 50 212.5
        "
        stroke-width="0" fill="#4c9f38"
    />
    <path
        d="
            M 75 212.5
            C 75 100, 75 0, 212.5 0
            C 100 0, 100 100, 100 212.5
            C 100 195, 75 195, 75 212.5
        "
        stroke-width="0" fill="#c5192d"
    />
    <path
        d="
            M 100 212.5
            C 100 100, 100 0, 212.5 0
            C 125 0, 125 100, 125 212.5
            C 125 195, 100 195, 100 212.5
        "
        stroke-width="0" fill="#ff3a21"
    />
    <path
        d="
            M 125 212.5
            C 125 100, 125 0, 212.5 0
            C 150 0, 150 100, 150 212.5
            C 150 195, 125 195, 125 212.5
        "
        stroke-width="0" fill="#26bde2"
    />
    <path
        d="
            M 150 212.5
            C 150 100, 150 0, 212.5 0
            C 175 0, 175 100, 175 212.5
            C 175 195, 150 195, 150 212.5
        "
        stroke-width="0" fill="#fcc30b"
    />
    <path
        d="
            M 175 212.5
            C 175 100, 175 0, 212.5 0
            C 200 0, 200 100, 200 212.5
            C 200 195, 175 195, 175 212.5
        "
        stroke-width="0" fill="#a21942"
    />
    <path
        id="midpoint"
        d="
            M 200 212.5
            C 200 100, 200 0, 212.5 0
            C 225 0, 225 100, 225 212.5
            C 225 195, 200 195, 200 212.5
        "
        stroke-width="0" fill="#fd6925"
    />
    <path
        d="
            M 225 212.5
            C 225 100, 225 0, 212.5 0
            C 250 0, 250 100, 250 212.5
            C 250 195, 225 195, 225 212.5
        "
        stroke-width="0" fill="#dd1367"
    />
    <path
        d="
            M 250 212.5
            C 250 100, 250 0, 212.5 0
            C 275 0, 275 100, 275 212.5
            C 275 195, 250 195, 250 212.5
        "
        stroke-width="0" fill="#fd9d24"
    />
    <path
        d="
            M 275 212.5
            C 275 100, 275 0, 212.5 0
            C 300 0, 300 100, 300 212.5
            C 300 195, 275 195, 275 212.5
        "
        stroke-width="0" fill="#c9992d"
    />
    <path
        d="
            M 300 212.5
            C 300 100, 300 0, 212.5 0
            C 325 0, 325 100, 325 212.5
            C 325 195, 300 195, 300 212.5
        "
        stroke-width="0" fill="#3f7e44"
    />
    <path
        d="
            M 325 212.5
            C 325 100, 325 0, 212.5 0
            C 350 0, 350 100, 350 212.5
            C 350 195, 325 195, 325 212.5
        "
        stroke-width="0" fill="#0a97d9"
    />
    <path
        d="
            M 350 212.5
            C 350 100, 350 0, 212.5 0
            C 375 0, 375 100, 375 212.5
            C 375 195, 350 195, 350 212.5
        "
        stroke-width="0" fill="#56c02b"
    />
    <path
        d="
            M 375 212.5
            C 375 100, 375 0, 212.5 0
            C 400 0, 400 100, 400 212.5
            C 400 195, 375 195, 375 212.5
        "
        stroke-width="0" fill="#00689d"
    />
    <path
        d="
            M 400 212.5
            C 400 100, 400 0, 212.5 0
            C 425 0, 425 100, 425 212.5
            C 425 195, 400 195, 400 212.5
        "
        stroke-width="0" fill="#19486a"
    />
</svg>